<svg width="50" height="50" viewBox="0 0 50 50" fill="none" xmlns="http://www.w3.org/2000/svg">
<path d="M15.4927 24.9513L12.1753 27.1701V22.7325L15.4927 24.9513ZM23.6253 19.5113V13.3272L13.2368 20.2522L17.8773 23.3566L23.6253 19.5113ZM36.6657 20.2522L26.2771 13.3272V19.5113L32.0254 23.3566L36.6657 20.2522ZM13.2368 29.6502L23.6252 36.5753V30.3911L17.8774 26.5468L13.2368 29.6502ZM26.2771 30.3911V36.5753L36.6657 29.6502L32.0254 26.5468L26.2771 30.3911ZM24.9511 21.8146L20.2616 24.9512L24.9511 28.088L29.6407 24.9512L24.9511 21.8146ZM49.9023 24.9513C49.9023 38.7317 38.7314 49.9021 24.9511 49.9021C11.1714 49.9021 0 38.7317 0 24.9513C0 11.1709 11.1714 0 24.9511 0C38.7314 0 49.9023 11.1709 49.9023 24.9513ZM40.3787 20.2506C40.3787 20.1921 40.3745 20.1346 40.3668 20.0776C40.3641 20.0583 40.3596 20.0395 40.3563 20.02C40.3495 19.9827 40.343 19.9453 40.3332 19.9088C40.3275 19.8868 40.3195 19.8658 40.3125 19.8447C40.302 19.8122 40.2915 19.7799 40.2785 19.7481C40.2695 19.7263 40.2585 19.7044 40.2488 19.6833C40.2346 19.6532 40.2199 19.624 40.2038 19.5957C40.1919 19.5745 40.1785 19.5543 40.1659 19.534C40.148 19.5064 40.1299 19.4796 40.1101 19.4536C40.0954 19.4342 40.0804 19.4147 40.0642 19.3961C40.0435 19.3718 40.0215 19.3474 39.9984 19.3246C39.9809 19.3067 39.9639 19.289 39.9457 19.2728C39.9217 19.2508 39.8961 19.2298 39.8702 19.2094C39.8507 19.194 39.8312 19.1786 39.8105 19.164C39.8029 19.1591 39.796 19.1526 39.7882 19.1478L25.6868 9.74648C25.2412 9.44941 24.6613 9.44941 24.2158 9.74648L10.1141 19.1478C10.1066 19.1526 10.0998 19.1591 10.0925 19.164C10.0718 19.1785 10.052 19.194 10.0324 19.2094C10.0064 19.2298 9.98125 19.2509 9.95723 19.2728C9.93896 19.289 9.92168 19.3068 9.9041 19.3246C9.88105 19.3474 9.85957 19.3718 9.83799 19.3961C9.82256 19.4146 9.80723 19.4342 9.79258 19.4536C9.77314 19.4797 9.75439 19.5064 9.73691 19.534C9.72344 19.5543 9.71094 19.5745 9.69883 19.5957C9.68262 19.624 9.66807 19.6533 9.65371 19.6833C9.64355 19.7044 9.6334 19.7263 9.62412 19.7481C9.61113 19.7799 9.60019 19.8122 9.58994 19.8447C9.58271 19.8658 9.57549 19.8869 9.56934 19.9088C9.55947 19.9453 9.55312 19.9827 9.54609 20.02C9.54297 20.0395 9.53809 20.0583 9.53564 20.0776C9.52793 20.1345 9.52344 20.1921 9.52344 20.2506V29.6519C9.52344 29.7104 9.52793 29.7679 9.53564 29.8255C9.53809 29.8441 9.54297 29.8637 9.54609 29.8823C9.55312 29.9197 9.55957 29.957 9.56934 29.9936C9.57549 30.0155 9.58271 30.0365 9.58994 30.0576C9.6001 30.09 9.61113 30.1226 9.62412 30.1552C9.6334 30.1771 9.64355 30.1979 9.65371 30.2191C9.66797 30.2492 9.68262 30.2783 9.69883 30.3075C9.71094 30.3278 9.72344 30.3481 9.73691 30.3685C9.75449 30.396 9.77314 30.4228 9.79258 30.4487C9.80713 30.469 9.82256 30.4877 9.83799 30.5063C9.85957 30.5307 9.88096 30.5551 9.9041 30.5777C9.92168 30.5957 9.93896 30.6134 9.95723 30.6297C9.98115 30.6517 10.0064 30.6726 10.0324 30.6929C10.052 30.7083 10.0718 30.7237 10.0925 30.7384C10.0998 30.7433 10.1066 30.7497 10.1141 30.7546L24.2158 40.156C24.4386 40.3045 24.6951 40.379 24.9512 40.379C25.208 40.379 25.4641 40.3044 25.6868 40.156L39.7882 30.7546C39.7959 30.7497 39.8028 30.7433 39.8105 30.7384C39.8312 30.7238 39.8507 30.7083 39.8702 30.6929C39.8962 30.6726 39.9217 30.6516 39.9457 30.6297C39.9639 30.6134 39.9809 30.5956 39.9984 30.5777C40.0215 30.5551 40.0435 30.5307 40.0642 30.5063C40.0804 30.4878 40.0953 30.469 40.1101 30.4487C40.1299 30.4228 40.1481 30.396 40.1659 30.3685C40.1785 30.3481 40.1919 30.3278 40.2038 30.3075C40.2199 30.2783 40.2346 30.2491 40.2488 30.2191C40.2585 30.1979 40.2695 30.177 40.2785 30.1552C40.2915 30.1226 40.302 30.09 40.3125 30.0576C40.3195 30.0365 40.3275 30.0154 40.3332 29.9936C40.3431 29.957 40.3495 29.9197 40.3563 29.8823C40.3596 29.8637 40.3641 29.8441 40.3668 29.8255C40.3745 29.7679 40.3787 29.7103 40.3787 29.6519V20.2506ZM37.7271 27.1701V22.7325L34.4103 24.9513L37.7271 27.1701Z" fill="#D5402C"/>
</svg>
