<svg width="51" height="50" viewBox="0 0 51 50" fill="none" xmlns="http://www.w3.org/2000/svg">
<path d="M46.9961 0H4.80859C2.65039 0 0.902344 1.74805 0.902344 3.90625V46.0938C0.902344 48.252 2.65039 50 4.80859 50H46.9961C49.1543 50 50.9023 48.252 50.9023 46.0938V3.90625C50.9023 1.74805 49.1543 0 46.9961 0ZM18.9102 35.459H14.0371V19.8633H18.9102V35.459ZM16.3418 17.9102H16.3027C14.5352 17.9102 13.3926 16.7188 13.3926 15.2051C13.3926 13.6621 14.5742 12.5 16.3711 12.5C18.168 12.5 19.2715 13.6621 19.3105 15.2051C19.3203 16.709 18.1777 17.9102 16.3418 17.9102ZM38.4023 35.459H32.875V27.3926C32.875 25.2832 32.0156 23.8379 30.1113 23.8379C28.6562 23.8379 27.8457 24.8145 27.4746 25.752C27.3379 26.084 27.3574 26.5527 27.3574 27.0312V35.459H21.8789C21.8789 35.459 21.9473 21.1621 21.8789 19.8633H27.3574V22.3145C27.6797 21.2402 29.4277 19.7168 32.2207 19.7168C35.6875 19.7168 38.4023 21.9629 38.4023 26.7871V35.459Z" fill="#D5402C"/>
</svg>
