<svg width="36" height="36" viewBox="0 0 36 36" fill="none" xmlns="http://www.w3.org/2000/svg">
<rect x="0.5" y="0.75" width="35" height="35" rx="17.5" fill="#D5402C"/>
<path fill-rule="evenodd" clip-rule="evenodd" d="M15.2424 10.5244H9.8788C9.34547 9.39999 10.4041 8.38263 11 8.01451C10.8546 4.8018 13.3232 4.95797 14.5758 5.43765C15.5697 2.43912 17.8586 3.16198 18.8788 3.89823C20.7455 3.14859 21.6364 4.79064 21.8485 5.70537C22.0303 5.35956 22.7394 4.85534 24.1212 5.60497C25.503 6.35461 25.4647 7.83602 25.2727 8.48303C26.3152 9.04525 26.3333 10.0782 26.2121 10.5244H21.0909C19.9273 10.5244 18.9293 11.4615 18.5758 11.93H17.4546C16.5818 10.7788 15.6162 10.5133 15.2424 10.5244ZM17.7576 13.7371C17.7649 13.2017 17.9091 13.1682 18.0606 13.1682V13.1683C18.2121 13.1683 18.3163 13.2085 18.3236 13.7436C18.3337 14.4794 18.6267 16.2253 19.7176 17.3224C21.0812 18.6937 23.2933 18.5599 24.8085 18.4261C24.3741 20.4664 22.5297 24.6137 18.6267 24.8813V22.239C18.9398 21.9826 19.6449 21.142 19.96 19.8309C19.6368 19.6637 18.8363 19.326 18.0606 19.326V19.3259C17.2848 19.3259 16.4445 19.6606 16.1212 19.8279C16.4364 21.1398 17.1414 21.9809 17.4546 22.2374V24.8812C13.5515 24.6135 11.7071 20.4637 11.2727 18.4223C12.7879 18.5562 15 18.6901 16.3637 17.318C17.4546 16.2203 17.7475 14.4734 17.7576 13.7371ZM9.36365 13.1682V12.1643C9.37375 12.0415 9.44243 11.7894 9.63637 11.7627C9.83032 11.7359 13.4546 11.7515 15.2424 11.7627C15.5455 11.7738 16.2182 11.9902 16.4849 12.7666C16.7515 13.543 16.3535 15.0311 16.1212 15.6782C15.9697 16.0909 15.3636 16.9565 14.1515 17.1172C12.6364 17.318 11.7879 17.2845 11.1515 17.1172C10.9192 17.0726 10.4546 16.8495 10.2424 16.5817C9.94951 16.2805 9.36365 15.1762 9.36365 13.1682ZM10.2121 19.259C9.61616 19.9172 8.87273 21.7154 10.6667 23.643C10.0101 24.5577 9.2606 26.6951 11.5151 27.9266C11.101 29.1872 11.0364 31.6078 14.0909 31.2062C14.1414 31.8644 14.5697 33.1941 15.8788 33.2477C17.1879 33.3012 17.8586 32.4222 18.0303 31.976C18.2019 32.4221 18.8419 33.2989 20.1501 33.2453C21.4584 33.1918 21.8864 31.8623 21.9368 31.2043C24.9894 31.6058 24.9248 29.1855 24.5109 27.9252C26.764 26.6938 26.015 24.5568 25.3589 23.6423C27.1517 21.715 26.4087 19.917 25.8131 19.259C24.0688 25.1747 19.9079 26.3649 18.0303 26.2199C16.1515 26.3649 11.9576 25.1757 10.2121 19.259ZM13.7576 14.9417C13.7576 15.7365 13.1471 16.3808 12.3939 16.3808C11.6408 16.3808 11.0303 15.7365 11.0303 14.9417C11.0303 14.147 11.6408 13.5027 12.3939 13.5027C13.1471 13.5027 13.7576 14.147 13.7576 14.9417ZM8.90909 9.11892V10.7253C8.27273 10.7141 6.71515 11.0265 5.57576 12.3651C6.12121 12.2759 7.38788 12.1108 8.09091 12.1643V14.2392C6.86869 14.1834 4.13939 13.8175 3 12.8001C3.60606 11.6177 5.63636 9.22601 8.90909 9.11892ZM27.0909 9.15231V10.7482C27.7273 10.7371 29.2848 11.0474 30.4242 12.3773C29.8788 12.2886 28.6121 12.1246 27.9091 12.1778V14.2391C29.1313 14.1837 31.8606 13.8202 33 12.8095C32.3939 11.6348 30.3636 9.2587 27.0909 9.15231ZM26.7176 12.1716V13.175C26.7176 15.1818 26.1317 16.2855 25.8388 16.5866C25.6267 16.8541 25.162 17.0771 24.9297 17.1217C24.2933 17.2889 23.4448 17.3224 21.9297 17.1217C20.7176 16.9612 20.1115 16.096 19.96 15.6835C19.7277 15.0369 19.3297 13.5496 19.5964 12.7737C19.863 11.9977 20.5358 11.7814 20.8388 11.7703C22.6267 11.7591 26.2509 11.7435 26.4448 11.7703C26.6388 11.797 26.7075 12.049 26.7176 12.1716ZM23.5454 16.5148C24.2985 16.5148 24.9091 15.8706 24.9091 15.0758C24.9091 14.2811 24.2985 13.6368 23.5454 13.6368C22.7923 13.6368 22.1818 14.2811 22.1818 15.0758C22.1818 15.8706 22.7923 16.5148 23.5454 16.5148Z" fill="#EDE6DC"/>
</svg>
